<?xml version="1.0" encoding="utf-8"?>
<!-- Generator: Adobe Illustrator 15.0.2, SVG Export Plug-In . SVG Version: 6.00 Build 0)  -->
<!DOCTYPE svg PUBLIC "-//W3C//DTD SVG 1.1//EN" "http://www.w3.org/Graphics/SVG/1.1/DTD/svg11.dtd">
<svg version="1.1" id="Layer_1" xmlns="http://www.w3.org/2000/svg" xmlns:xlink="http://www.w3.org/1999/xlink" x="0px" y="0px"
	 width="800px" height="600px" viewBox="0 0 800 600" enable-background="new 0 0 800 600" xml:space="preserve">
<g opacity="0.31">
	<path fill="#B89D18" d="M336.854,222.37c-22.61,8.263-47.945,14.449-66.369-5.613c-15.651-17.046-21.179-50.563,2.524-63.374
		c0.295-0.158,0.382-0.645,0.111-0.871c-7.668-6.432-16.96-9.695-25.6-14.517c-11.714-6.539-20.828-17.67-23.383-31.046
		c-2.576-13.482,1.681-28.057,14.69-34.397c12.75-6.217,28.899-4.609,41.337,1.457c11.464,5.589,20.458,15.994,24.778,27.954
		c2.078,5.744,3.355,12.08,2.212,18.15c-1.774,9.37-9.74,14.49-18.618,16.045c-14.941,2.618-31.078-5.532-33.843-21.289
		c-2.653-15.141,13.63-31.471,28.493-21.899c15.44,9.945,7.373,32.773-10.27,32.43c-3.522-0.065-6.719-1.326-9.2-3.31
		c-1.352-1.58-2.478-3.355-3.23-5.384c-1.193-3.235-1.378-6.929-0.436-10.236c0.218-0.439,0.432-0.874,0.707-1.309
		c2.263-3.588,5.899-6.169,9.911-7.386c0.519-0.158,1.718-0.219,2.211-0.318c2.189,0.12,3.569,0.839,5.297,2.186
		c-4.652-1.168-10.217,1.326-13.211,4.904c-10.034,11.995,11.172,22.759,19.862,10.638c1.65-2.563,2.916-5.812,2.766-7.735
		c-0.453-5.819-2.766-10.99-8.626-12.29c-5.861-1.302-10.489-1.68-15.129,1.073c-6.394,3.793-8.734,11.724-7.261,18.746
		c1.856,8.879,9.253,14.665,17.367,17.697c2.009,0.748,2.872-2.46,0.886-3.201c-2.598-0.97-5.12-2.279-7.367-3.928
		c7.646,2.444,17.35-0.391,22.087-6.977c7.875-10.939-0.248-27.914-13.465-29.322c-15.887-1.689-26.201,15.048-21.733,29.147
		c5.201,16.446,24.48,22.968,39.919,17.372c17.534-6.357,16.479-25.271,9.394-39.566c-8.416-16.967-25.681-28.002-44.606-28.578
		c-17.884-0.545-34.396,8.365-36.56,27.352c-2.018,17.69,8.429,34.681,23.431,43.403c4.426,2.574,9.148,4.582,13.725,6.864
		c2.368,1.183,5.049,2.348,7.187,3.951c1.201,0.901,2.302,1.162,2.801,2.79l-1.047,2.759c-2.415,2.923-5.522,4.938-7.618,8.259
		c-2.576,4.085-4.142,8.78-4.812,13.551c-2.459,17.512,6.17,36.628,20.271,47.077c7.74,5.733,16.931,8.403,26.532,8.184
		c5.169-0.116,10.29-0.997,15.301-2.245c2.754-0.686,5.482-1.512,8.184-2.379c1.176-0.376,3.39-0.969,5.383-1.833
		c0.888-0.319,1.781-0.638,2.667-0.957c-0.79,1.563-1.58,3.123-2.37,4.678c-3.102,2.913-8.773,4.031-12.471,6.196
		c-4.166,2.434-8.043,5.326-11.644,8.53c-7.553,6.724-13.825,14.829-19.032,23.469c-7.291,12.094-16.475,34.511,0.974,43.119
		c14.851,7.327,30.965-16.049,28.35-29.137c-2.555-12.817-21.954-13.112-24.083-0.168c-0.021,0.127-0.53,4.476,1.527,7.752
		c0.211,0.333,1.147,1.508,1.484,1.689c4.842,4.174,15.645-2.563,11.613-8.79c-3.517-5.432-6.717-0.421-6.239,2.995
		c-0.244,1.889-3.23,3.811-3.724-1.166c-0.004-0.904,0.121-2.272,1.059-3.639c0.541-0.888,1.189-1.683,1.952-2.388
		c2.485-2.091,4.193-2.334,7.692-0.58c1.65,0.867,2.691,4.198,3.084,5.709c1.793,6.875-0.811,14.064-5.646,19.006
		c-1.104,1.131-0.107,2.704,1.092,2.831c-2.394,2.546-5.134,4.555-8.117,5.521c-11.134,3.602-19.147-7.879-19.111-17.742
		c0.034-8.825,4.622-17.104,9.049-24.458c7.367-12.214,16.958-23.51,29.247-30.998c5.98-3.639,17.508-5.565,18.36-13.927
		C337.591,222.562,337.17,222.257,336.854,222.37 M273.811,116.594c-12.456-0.147-6.282-16.402,1.466-12.399
		c-0.692,0.469-1.268,1.199-1.621,2.241c-0.1,0.295-0.169,0.58-0.218,0.857c-1.107,2.389-0.72,5.422,2.68,7.752
		c0.533,0.363,1.088,0.634,1.65,0.833C276.621,116.344,275.301,116.611,273.811,116.594 M308.864,272.717
		c6.453,1.426,9.574,9.466,7.862,16.111c-0.127,0.483-0.271,0.987-0.429,1.49c0.369-2.525,0.322-5.127-0.217-7.725
		C315.219,278.491,312.514,274.225,308.864,272.717"/>
	<path fill="#B89D18" d="M349.253,305.116c-6.911,1.076-12.111,7.461-14.884,13.399c-5.361,11.498-3.706,31.94,12.125,33.85
		c12.899,1.556,21.337-15.059,14.044-25.23c-6.576-9.178-21.26-8.149-25.004,2.961c-3.901,11.594,9.51,21.478,20.052,16.669
		c4.195-1.912,6.402-6.638,6.398-11.014c0.115,1.785-0.091,3.604-0.686,5.366c-4.85,14.384-22.711,11.939-27.41-0.926
		c-6.051-16.569,11.373-47.083,28.075-26.744c5.747,7.002,11.496,15.885,9.267,25.405c-1.635,7.011-7.244,12.097-13.409,15.273
		c-12.447,6.427-31.429,7.217-42.135-3.057c-4.697-4.503-7.543-11.433-6.661-17.985c0.378-0.637,2.023-5.353,2.129-5.781
		c0.432-0.638,0.845-1.337,1.224-2.166c0.294-0.647-0.543-1.145-0.958-0.559c-0.396,0.562-0.748,1.134-1.076,1.71
		c-0.85,1.039-2.317,2.423-5.494,2.584c-3.259,0.021-5.621-0.963-8.265-2.327c-0.315-0.205-0.637-0.38-0.943-0.603
		c-2.583-1.679-4.906-3.869-6.98-6.162c-6.53-8.287-9.696-20.72-9.69-29.925c0.012-15.593,6.574-30.446,18.148-40.864
		c1.168-1.049,0.144-2.704-1.172-2.831c-0.13-0.014-0.257-0.038-0.384-0.051c1.053-1.011,2.132-2.001,3.25-2.941
		c0.301-0.253,0.155-0.86-0.241-0.922c-18.001-2.913-40.082-12.735-48.166-30.25c-5.209-11.282-5.471-24.647-2.889-37.296
		c1.874-6.192,4.751-12.111,8.578-17.433c0.631-0.877-0.036-2.183-0.994-2.44c-0.294-0.076-0.583-0.185-0.877-0.268l-2.733-0.846
		c-19.762-6.82-34.831-25.244-36.639-46.337c-0.999-11.687,2.286-23.87,11.308-31.807c9.546-8.393,23.288-11.446,35.703-11.309
		c24.316,0.267,43.835,13.28,58.673,31.655c12.738,15.778,22.74,33.606,37.521,47.701c0.131,0.12,0.261,0.206,0.398,0.277
		c6.573,8.989,13.117,17.996,19.74,26.93c0.417,0.569,1.377,0.017,0.955-0.555c-6.486-8.756-12.939-17.533-19.404-26.303
		c1.011-0.394,1.678-1.728,0.66-2.697c-26.291-25.069-40.005-64.103-75.913-76.461c-14.788-6.7-31.781-9.058-47.154-2.848
		c-14.041,5.676-25.831,17.852-27.819,33.284c-1.246,9.688,1.251,18.986,5.619,27.519c4.095,10.493,11.121,19.575,20.063,26.128
		c3.379,3.3,11.84,6.69,11.84,6.69s3.189,1.23,4.829,1.744c-0.187,0.388-0.368,0.761-0.544,1.107
		c-10.907,17.138-12.92,39.236-4.063,57.8c8.328,17.451,25.192,29.288,43.954,32.581c-1.179,1.278-2.327,2.587-3.398,3.962
		c-9.363,11.984-13.974,27.156-11.924,41.923c0.057,0.679,0.103,1.36,0.184,2.042c1.895,15.737,12.366,35.378,29.919,35.158
		c-4.035,7.786-1.123,15.823,4.625,21.779c-4.88-2.17-16.557,6.439-19.563,8.444c-9.868,6.559-19.564,15.606-24.45,26.601
		c-3.825,8.616-4.099,18.732,2.152,26.319c5.548,6.741,14.262,8.017,21.789,3.817c5.496-3.066,14.031-11.545,9.478-18.396
		c-3.972-5.978-16.801-6.165-22.125-2.361c-4.319,3.084-6.667,10.435-2.253,14.496c0.214,0.191,0.442,0.353,0.673,0.518
		c-3.178-1.706-5.706-4.853-6.775-8.256c-3.935-12.509,7.288-22.639,16.998-27.996c1.872-1.031,0.197-3.899-1.677-2.864
		c-9.222,5.085-18.086,12.681-19.2,23.873c-0.698,7.035,2.292,14.431,8.634,18.013c5.895,3.327,13.781,2.031,17.996-3.4
		c3.638-4.698,3.27-11.591-2.702-14.095c-5.311-2.228-13.558,1.274-14.951,7.134c-0.017-1.751,0.836-3.556,2.572-5.42
		c1.724-0.937,3.448-1.866,5.17-2.794c8.117-2.385,22.007,3.139,15.624,13.242c-9.142,14.473-29.261,11.271-32.753-5.538
		c-2.681-12.896,6.983-25.247,15.729-33.503c2.73-2.573,25.938-21.508,29.907-16.316c0.344,0.449,6.808,4.205,10.058,5.607
		c14.149,6.1,32.04,7.22,44.399-3.153c1.635-1.378-0.723-3.715-2.348-2.351c-9.65,8.104-22.874,7.984-34.454,4.664
		c-10.129-2.906-25.164-12.643-20.713-24.448c-0.038,9.273,6.741,18.218,15.887,21.83c12.924,5.112,30.242,2.683,40.904-6.361
		c12.349-10.479,8.465-24.979-0.341-36.396C360.448,309.609,356.236,304.026,349.253,305.116 M360.78,339.301
		c-1.842,6.439-9.025,8.646-14.899,7.043c-10.477-2.855-13.838-17.005-3.8-22.855c7.752-4.517,15.504,0.064,18.568,6.93
		c-1.45-2.471-4.088-4.041-8.02-3.53c-4.429,0.572-9.844,5.463-7.212,10.274c1.604,2.93,5.12,3.66,7.047,1.021
		c0.42-0.576-0.542-1.124-0.954-0.556c-9.536,0.442-2.313-11.576,7.264-7.669C361.034,332.858,361.701,335.97,360.78,339.301
		 M211.5,90.826c6.845-25.069,35.314-35.227,58.71-29.795c1.522,0.353,3.018,0.757,4.491,1.207
		c-17.08-3.201-37.511-0.895-50.885,10.983c-11.086,9.85-14.118,25.298-11.545,39.445C210.124,105.586,209.505,98.123,211.5,90.826
		 M250.133,214.556c-3.154-6.652-4.779-13.763-5.057-20.912c0.597,10.689,3.797,21.042,11.229,28.691
		c6.886,7.083,15.55,12.588,24.681,16.282c3.724,1.511,9.356,2.331,13.519,4.037c2.378,0.977,1.356,1.631-0.445,3.259
		C275.344,243.463,258.303,231.774,250.133,214.556"/>
	<path fill="#B89D18" d="M344.45,243.158c2.351,8.558,10.293,16.618,19.87,15.028c20.367-3.396,9.387-34.353-6.636-23.893
		c-0.315,0.208-0.624,0.435-0.924,0.682c-2.603,0.75-3.758,3.317-3.972,6.223c-0.249,2.012,0.014,3.355,1.229,7.283
		c0.259,0.599,0.543,1.155,0.86,1.624c4.298,6.357,13.289,3.876,16.339-2.283c1.383-2.8,2-6.58,0.485-9.448
		c-0.826-1.56-2.26-2.656-3.881-3.153c-2.116-1.45-4.784-1.703-7.152,0.329c-0.264-0.377-0.66-0.668-1.218-0.737
		c-0.124-0.017-0.225-0.003-0.34-0.014c0.849-0.511,1.729-0.887,2.583-1.073c11.952-2.604,16.77,13.146,9.067,20.104
		c-7.481,6.754-18.265,2.406-22.923-5.326c-4.207-6.98-3.782-15.75-2.087-23.386c1.909-8.602,7.538-17.752,6.272-26.779
		c-0.464-3.293-1.928-6.347-3.408-9.281c-1.148-2.275-2.397-4.485-3.422-6.819c-0.649-1.268-1.168-2.588-1.554-3.958
		c-2.612-6.994,1.691-9.379,12.91-7.159c0.214,0.675,1.286,0.388,1.068-0.294c-2.123-6.656-10.622-9.373-14.557-2.382
		c-5.871,10.428,7.802,21.933,8.05,32.102c0.204,8.132-4.667,16.473-6.429,24.28C343.325,230.848,342.797,237.137,344.45,243.158
		 M359.944,244.19c2.013,1.71,3.892,1.892,5.836,0.833c0.452-0.247,0.694-0.606,0.781-0.983c0.352-0.254,0.699-0.552,1.03-0.912
		c0.013-0.014,0.013-0.034,0.027-0.044c0.555,0.548,0.972,1.072,1.263,1.576c-0.697,2.499-2.425,4.846-4.973,5.621
		c-0.207,0.061-0.399,0.075-0.603,0.116c-1.166,0.33-1.166,0.33-2.324,0.007c-2.204-0.507-3.814-2.426-4.551-4.894
		c-0.733-2.454-1.141-7.272,2.302-7.409C357.761,240.451,358.192,242.912,359.944,244.19"/>
	<path fill="#B89D18" d="M340.088,218.607c-0.05,0.059-0.101,0.117-0.151,0.174c-0.193,0.216-0.234,0.573,0,0.778
		c0.077,0.076,0.155,0.144,0.232,0.216c0.334,0.299,0.772,0.147,0.927-0.243c1.333-3.399-0.147-9.948-0.506-13.509
		c-0.371-3.654-0.887-7.352-2.189-10.803c-0.723-1.926-1.688-3.64-2.833-5.164c0.459,0.476,0.91,0.97,1.345,1.508
		c1.347,1.658,3.685-0.703,2.348-2.348c-11.553-14.211-39.604-8.752-43.952,9.689c-0.035,0.144-0.01,0.27-0.01,0.404
		c-1.818,3.951-2.82,8.331-2.786,12.827c0.007,0.713,1.112,0.713,1.108,0c-0.031-4.023,0.787-7.957,2.3-11.549
		c0.857,0.637,2.274,0.535,2.589-0.802c1.784-7.557,8.476-11.611,15.364-14.041c3.304-1.162,6.513-1.676,9.553-1.477
		c0.2,0.031,0.396,0.051,0.596,0.089c8.293,1.498,12.701,7.511,14.501,15.288c0.651,2.806,0.902,5.692,1.14,8.564
		c0.097,1.168,1.228,8.313,1.274,10.531C340.768,218.446,340.375,218.285,340.088,218.607"/>
	<path fill="#B89D18" d="M300.968,171.554c-9.56,4.5-15.882,13.249-19.666,22.862c-0.259,0.661,0.811,0.95,1.071,0.295
		c7.089-18.02,26.608-32.215,45.585-21.029c0.538,0.322,1.131-0.425,0.67-0.864c-0.508-0.49-0.981-0.997-1.448-1.508
		c0.49-0.476,0.754-1.213,0.392-1.994c-3.744-8.108-5.977-19.486,3.436-24.703c1.868-1.039,0.197-3.906-1.674-2.868
		c-8.285,4.589-9.296,13.17-7.398,21.296c-0.901-2.272-1.493-4.695-1.734-7.283c-0.754-8.04,2.825-21.758,14.205-19.932
		c0.699,0.113,0.997-0.956,0.295-1.066c-7.733-1.244-13.222,5.114-15.033,12.173c-1.115,4.355-0.997,9.064,0.141,13.4
		c0.224,0.864,1.947,4.523,3.593,7.495c0.375,1.018,0.784,2.019,1.222,2.982c-3.063-0.998-9.054-2.169-10.202-2.187
		C309.781,168.555,305.169,169.58,300.968,171.554"/>
	<path fill="#B89D18" d="M498.423,200.893c0.657-0.278,0.089-1.233-0.56-0.956c-9.709,4.099-6.678,17.022,2.424,19.784
		c12.413,3.767,19.85-6.384,16.868-17.731c-3.685-13.999-17.17-21.357-30.775-22.882c-15.459-1.73-30.827,3.931-41.758,14.884
		c-0.505,0.503,0.28,1.282,0.784,0.781c13.002-13.029,33.144-18.619,50.774-12.327c10.306,3.674,19.261,11.57,20.46,22.989
		c0.916,8.673-5.205,15.065-14.03,13.54C494.242,217.524,488.004,205.292,498.423,200.893"/>
	<path fill="#B89D18" d="M469.766,258.354c-6.038-2.467-10.939-7.104-13.743-13.019c-6.22-13.132,0.25-27.968,12.808-34.271
		c0.641-0.315,0.078-1.268-0.559-0.949c-15.097,7.57-20.733,26.539-10.35,40.442c4.997,6.696,12.224,9.989,20.35,11.189
		c3.947,0.583,12.337,1.319,13.613-3.921c0.095-0.374-0.173-0.668-0.532-0.706c-0.127-0.01-0.25-0.017-0.381-0.031
		c-0.229-0.021-0.485,0.182-0.534,0.408c-0.021,0.096-0.048,0.195-0.068,0.294c-0.157,0.693,0.911,0.988,1.068,0.292
		C489.995,264.417,473.625,259.93,469.766,258.354"/>
	<path fill="#B89D18" d="M315.354,308.111c-0.677,0.209-0.396,1.251,0.295,1.065c0.702-0.192,1.4-0.38,2.103-0.572
		c0.12-0.03,0.2-0.096,0.259-0.168c0.699-0.308,1.398-0.616,2.096-0.925c1.007-0.284,3.218-1.988,3.987-2.615
		c3.052-2.491,5.425-5.685,7.18-9.198c3.663-7.331,4.769-16.23,3.835-24.308c-1.435-12.437-10.787-27.259-24.628-18.253
		c-0.597,0.388-0.041,1.344,0.558,0.953c16.649-10.83,23.866,12.796,23.186,25.093C333.544,291.531,328.026,304.229,315.354,308.111
		"/>
	<path fill="#B89D18" d="M464.561,79.986c-0.106-0.356-0.217-0.699-0.319-1.052c-0.486,0.061-0.959,0.136-1.419,0.25
		c-3.211,0.812-6.46,2.512-7.173,6.049c-0.616,3.091,1.011,3.599,2.135,5.134c-0.233-2.132-0.891-3.602-0.891-5.042
		C458.419,79.164,462.037,80.038,464.561,79.986"/>
	<path fill="#B89D18" d="M458.31,91.258c-0.148-0.343-0.333-0.627-0.525-0.891c0.243,2.258,0.474,4.575,0.395,6.306
		C459.196,95.515,459.43,93.825,458.31,91.258"/>
	<path fill="#B89D18" d="M445.591,111.913c0.237-0.713-0.394-2.303-1.086-2.344c-8.551-1.831,1.223-11.357,8.564-9.5
		c1.411,0.356,2.693-0.264,4.092-0.703c0.679-0.212,0.955-1.251,1.021-2.693c-2.833,3.225-11.806,2.32-14.962,4.794
		c-2.721,2.128-2.899,4.654-2.434,7.739c0.528,3.43,6.991-0.621,0.223,7.357c-2.724,3.208-9.489,2.745-12.772,5
		c-0.583,0.397-2.34,3.695-0.843,5.106c0.041,0.034,0.089,0.065,0.146,0.093c1.479,0.932,4.768,0.277,5.546,3.626
		c-0.044,2.762-0.332,4.215-1.281,5.089c1.261-1.015,2.189-2.323,2.389-4.102c0.26-2.324-3.229-4.915-5.193-5.216
		c-0.297-0.048-0.551-0.083-0.767-0.109c-0.407-0.696-0.521-1.892,0.394-3.664c0.103-0.192,6.875-1.652,6.704-1.587
		C439.646,119.106,444.125,116.31,445.591,111.913"/>
	<path fill="#B89D18" d="M425.598,138.387c1.714-0.562,3.722-1.244,5.367-2.303c-1.439,0.819-3.53,1.175-5.662,1.237
		C424.628,137.543,424.916,138.609,425.598,138.387"/>
	<path fill="#B89D18" d="M431.805,135.477c-0.268,0.212-0.545,0.418-0.84,0.607C431.279,135.906,431.561,135.7,431.805,135.477"/>
	<path fill="#B89D18" d="M476.044,69.852c0.013-0.322,0.056-0.624,0.097-0.932C476.1,69.212,476.057,69.514,476.044,69.852"/>
	<path fill="#B89D18" d="M481.105,62.008c4.768-4.328,13.324-5.839,19.445-6.501c0.703-0.071,0.709-1.179,0-1.103
		c-5.904,0.634-20.333,3.078-23.941,10.175c0.21,1.12,0.065,1.922-0.127,2.742C477.209,65.048,478.789,63.259,481.105,62.008"/>
	<path fill="#B89D18" d="M476.141,68.92c0.089-0.589,0.226-1.1,0.342-1.6C476.325,67.824,476.215,68.365,476.141,68.92"/>
	<path fill="#B89D18" d="M306.192,65.829c1.818,1.621,4.454,1.922,6.762,1.809c1.46-0.071,2.833-0.411,4.254-0.754
		c1.183-0.288,2.337-0.716,3.526-0.983c1.541-0.247,3.078-0.494,4.619-0.737c11.022,0.068,7.052,8.362,4.112,11.912
		c-1.484,3.376-5.614,10.003,0.729,11.59c1.822,0.456,3.667-0.374,5.247-1.172c1.024-0.514,2.029-1.611,3.091-2.081
		c0.01-0.332,0.033-0.665,0.067-0.994c-0.329,0.168-0.666,0.326-1.025,0.436c-3.358,3.118-15.437,6.631-7.889-6.179
		c1.021-1.364,1.955-2.776,2.802-4.25c0.951-2.334,1.604-4.644,0.132-6.923c-1.163-1.806-3.28-2.813-5.302-3.252
		c-2.358-0.511-4.601,0.085-6.878,0.583c-1.562,0.456-3.131,0.888-4.708,1.298c-5.207,1.817-14.243,1.467-8.53-8.3
		c0.576-0.415,0.021-1.375-0.558-0.956C303.634,59.043,303.297,63.245,306.192,65.829"/>
	<path fill="#B89D18" d="M358.445,116.861c2.397,0.093,2.534-0.853,5.749-2.862c0.452-0.294,0.904-0.589,1.357-0.884
		c7.507-1.837,5.079,2.437,3.453,7.687c-0.5,1.031-0.808,1.2-1.055,1.902c-0.352,1.004-1.059,1.795-1.277,2.893
		c-0.9,4.523,2.449,7.601,6.443,5.281c0.831-0.487,2.046-2.032,2.622-2.673c6.031-6.666,3.715,2.975,4.234,4.99
		c0.552,2.139,0.699,2.478,2.917,3.091c0.689,0.192,0.98-0.877,0.294-1.069c-4.2-1.159,0.391-14.161-6.694-9.336
		c-0.965,0.659-1.812,2.509-2.863,2.735c-9.222,2.872-5.615-4.544-3.706-7.008c0.536-0.806,1.018-1.649,1.439-2.526
		c0.743-1.991,1.209-4.668-0.324-6.463c-0.88-1.032-1.859-1.351-3.172-1.419c-1.547-0.082-3.021,1.1-4.226,1.844
		c-0.663,0.497-1.343,0.966-2.042,1.405c-2.562,1.999-5.167,3.256-5.679-3.108c0.807-3.081,8.571-12.813,2.776-15.631v0.692
		c0,1.851,0.72,0.939-0.402,2.344c3.225,1.501,0.562,3.157-0.723,5.572c-1.068,1.971-2.629,5.71-2.86,6.834
		C354.041,114.38,354.333,116.704,358.445,116.861"/>
	<path fill="#B89D18" d="M491.757,358.705c-0.695,0.085-0.703,1.196,0,1.107c12.341-1.56,24.843,1.658,34.175,10.126
		c8.352,7.577,16.666,22.043,11.837,33.427c-4.451,10.505-21.602,15.097-32.074,12.776c-10.549-2.341-14.866-13.783-6.614-21.682
		c1.436-1.375,3.006-2.465,4.717-3.188c-1.598,0.937-2.996,2.324-4.001,4.236c-3.059,5.836,0.734,12.256,6.166,14.941
		c6.71,3.322,15.251,1.984,20.562-3.283c11.474-11.384,2.276-34.39-12.255-38.228c-0.679-0.186-1.543,0.105-1.871,0.761
		l-0.288,0.555c-0.36,0.71-0.241,1.411,0.26,2.009c0.134,0.161,0.268,0.318,0.404,0.479c1.378,1.635,3.716-0.723,2.345-2.348
		c6.576,7.8,18.025,18.879,11.686,30.658c-3.063,5.688-10.424,9.428-16.709,7.417c2.604,0.071,5.444-1.184,7.186-3.144
		c5.124-5.774,3.376-10.816-0.671-13.498c-2.025-2.139-5.062-3.452-8.963-2.944c-16.48,2.155-19.629,24.691-2.248,28.324
		c15.128,3.159,36.608-5.329,34.662-23.264C537.539,370.584,513.797,355.922,491.757,358.705 M510.291,393.085
		c5.003-0.213,8.642,8.225,4.026,8.808c-0.604-0.654-1.2-1.172-1.782-1.569c0.287-0.819,0.041-1.899-1-2.296
		c-4.172-1.594-8.428,1.72-6.965,6.299c0.004,0.006,0.007,0.013,0.007,0.021C501.777,399.737,504.077,393.346,510.291,393.085"/>
	<path fill="#B89D18" d="M417.982,367.249c2.396-10.203,5.645-20.187,7.944-30.419c4.311-19.212,5.922-38.788,0.191-57.88
		c-2.785-9.294-6.675-18.286-8.588-27.827c-2.453-12.204,0.539-21.557,5.278-32.759c5.839-13.804,4.975-27.923-5.813-39.038
		c-0.499-0.51-1.281,0.271-0.78,0.781c8.794,9.062,11.446,21.265,7.423,33.208c-3.044,9.04-8.051,16.762-8.338,26.569
		c-0.278,9.63,2.923,18.969,5.973,27.958c4.044,11.892,7.444,23.304,7.585,36.018c0.271,24.411-9.312,46.331-13.355,69.957
		c-1.487,8.704-3.071,35.315,13.42,29.798c0.668-0.223,0.381-1.292-0.295-1.065c-11.617,3.886-13.354-11.487-13.111-18.9
		C415.708,378.115,416.719,372.63,417.982,367.249"/>
	<path fill="#B89D18" d="M381.111,83.773c3.744,5.881,3.021,10.939,1.147,17.077c-2.447,7.999,1.833,22.417,11.661,23.174
		c0.713,0.055,0.709-1.052,0-1.107c-9.387-0.724-12.454-15.309-10.594-21.772c0.983-3.424,2.39-6.59,1.898-10.216
		c-1.642-12.167-17.115-17.852-14.829-31.286c0.115-0.699-0.948-0.998-1.068-0.295c-1.039,6.1,1.362,10.925,5.004,15.768
		C376.536,78.043,379.136,80.672,381.111,83.773"/>
	<path fill="#B89D18" d="M409.778,120.103c-9.204-9.791,10.018-21.066,11.844-31.035c0.977-5.343-0.733-8.866-2.23-13.845
		c-2.379-7.896,0.113-15.367,7.721-19.24c0.638-0.319,0.075-1.271-0.559-0.949c-4.582,2.327-7.909,6.145-9.017,11.261
		c-1.576,7.269,3.646,13.197,3.273,20.429c-0.512,9.876-9.4,13.787-13.197,21.765c-2.057,4.314-1.913,8.893,1.384,12.396
		C409.49,121.405,410.268,120.618,409.778,120.103"/>
	<path fill="#B89D18" d="M480.849,251.257c-20.343,3.057-27.225-26.474-8.444-33.527c1.978-0.744,1.124-3.955-0.885-3.201
		c-9.897,3.718-15.724,15.655-12.975,25.871c2.805,10.438,13.016,15.586,23.188,14.058
		C483.84,254.142,482.942,250.941,480.849,251.257"/>
	<path fill="#B89D18" d="M378.664,337.957c-6.285-17.886-6.067-36.538,0.282-54.339c5.187-14.544,13.264-28.787,13.662-44.583
		c0.428-17.286-15.547-35.597-5.763-52.129c1.092-1.84-1.775-3.513-2.864-1.676c-8.732,14.753,1.284,29.336,4.407,44.096
		c3.58,16.916-4.509,32.725-10.675,48.236c0.764-2.992,1.611-5.963,2.555-8.9c2.954-9.211,8.914-18.485,8.749-28.372
		c-0.298-18.084-22.823-40.703-5.953-56.985c0.516-0.493-0.265-1.282-0.781-0.781c-10.68,10.305-5.304,25.655-0.31,37.406
		c2.481,5.83,5.022,11.611,5.679,17.968c0.673,6.542-1.417,11.998-3.832,17.958c-3.864,9.551-6.984,19.314-8.96,29.431
		c-5.26,15.779-5.545,32.534-0.994,48.531c0.826,2.899,1.864,5.713,3.016,8.479c3.035,10.049,8.024,19.342,11.271,29.312
		c1.741,5.346,3.119,11.091,2.854,16.752c-0.131,2.704-0.65,5.305-1.608,7.827c-0.607,1.59-5.233,10.909-7.886,6.162
		c-0.348-0.621-1.302-0.065-0.954,0.559c0.489,0.874,0.975,1.747,1.466,2.625c0.144,0.261,0.502,0.343,0.754,0.194
		c13.919-8.115,9.319-27.176,4.662-39.376c-1.597-4.181-3.345-8.283-5.026-12.402c5.082,9.839,10.553,19.5,12.931,30.421
		c0.453,2.089,3.654,1.2,3.202-0.879C394.962,367.006,384.192,353.684,378.664,337.957"/>
	<path fill="#B89D18" d="M423.65,149.124c0.076-1.292-1.109-1.785-2.083-1.515c0.017-0.86,0.011-1.717-0.041-2.571
		c-0.041-0.706-1.151-0.712-1.104,0c0.068,1.221,0.075,2.458,0.01,3.695c-0.037,0.126-0.092,0.24-0.103,0.391
		c-0.658,11.36-11.436,21.09-22.634,14.866c-1.238-0.688-2.383,0.336-2.478,1.409c-1.912-1.535-3.426-3.677-4.226-6.449
		c-0.195-0.686-1.267-0.395-1.065,0.294c2.2,7.604,9.677,11.504,17.023,9.836C415.943,167.846,423.068,159.141,423.65,149.124"/>
	<path fill="#B89D18" d="M577.992,69.839c-5.6-3.42-11.714-4.966-18.048-5.175c-3.886-0.672-7.761-0.997-11.391-0.97
		c-12.327,0.086-23.007,5.398-32.715,12.625c-4.352,3.242-8.616,6.642-12.821,10.127c-0.167,0.11-0.339,0.223-0.503,0.333
		c-15.771,10.39-29.706,23.272-41.334,38.016c-10.99,12.049-20.12,25.686-23.032,41.57c-0.065,0.377,0.156,0.662,0.538,0.699
		c1.007,0.096,1.914,0.093,2.782,0c-0.004-0.048-0.004-0.075-0.004-0.079c-0.075-0.445-0.192-0.888-0.308-1.326
		c-0.2-0.274-0.356-0.576-0.468-0.901c-0.575-0.826-0.66-2.262-0.105-4.218c0.243-0.864,0.518-1.721,0.806-2.571
		c0.624,0.953,2.135,1.306,2.776,0.007c10.521-21.413,25.233-40.447,43.434-55.899c18.425-15.645,44.531-32.632,69.354-33.9
		c3.084-0.157,6.176,0.092,9.147,0.723c-4.936-0.208-10.056,0.566-14.531,1.371c-26.879,4.853-51.18,19.792-70.439,38.794
		c-7.992,7.886-17.046,18.506-16.237,30.553c0.664,9.883,8.269,16.556,16.464,20.946c9.404,5.038,21.795,11.364,32.348,6.426
		c10.524-4.924,15.878-17.152,20.079-27.262c3.988-9.599,4.14-19.315-3.372-27.238c-6.611-6.97-16.557-9.681-25.813-7.245
		c-9.849,2.591-16.912,10.826-19.137,19.945c0.052-0.453,0.097-0.905,0.175-1.354c2.368-12.902,13.733-20.771,26.53-19.962
		c2.127,0.137,2.12-3.187,0-3.32c-18.942-1.196-34.785,16.271-29.302,35.206c1.576,5.432,5.01,9.585,9.272,12.213
		c0.707,0.631,1.447,1.248,2.26,1.823c16.646,11.779,41.942-3.591,38.882-24.133c-1.792-12.019-14.074-17.122-24.486-15.038
		c-1.885-0.333-3.902-0.343-6.055,0.044c-13.273,2.392-14.014,17.824-6.398,25.662c4.814,6.707,15.169,8.578,21.288,3.688
		c-2.714,4.25-7.169,7.416-12.803,7.937c-9.637,0.891-16.367-5.507-18.671-13.657c-1.258-7.955,1.446-16.56,7.596-22.077
		c10.181-9.137,26.38-9.006,35.877,1.045c9.499,10.065,5.284,21.881,0.027,32.82c-6.673,13.891-16.241,25.347-33.122,19.897
		c-9.336-3.012-21.259-8.091-27.013-16.467c-9.136-13.293,1.233-28.225,10.624-37.9c14.977-15.421,33.424-28.156,53.716-35.436
		c10.109-3.625,21.899-6.929,32.715-6.165c2.763,0.195,5.277,0.761,7.498,1.683c1.864,0.946,3.611,2.07,5.183,3.372
		c2.871,2.844,4.509,6.878,4.434,12.142c-0.075,5.381-1.598,11.166-3.293,16.23c-3.424,10.233-9.233,19.675-16.816,27.351
		c-6.005,6.077-16.499,9.98-20.823,17.496c-1.495,2.601-1.665,5.206-1.192,7.797c-0.395,6.518,2.532,13.324,3.752,19.801
		c2.779,14.712-0.174,31.381-10.966,42.358c-10.446,10.63-27.107,14.277-40.56,7.492c-1.604-0.809-3.479,1.271-2.016,2.601
		c1.738,1.59,3.455,3.214,5.154,4.856c-4.314-1.168-8.601-3.304-12.728-6.618c-0.462-0.374-1.206,0.089-0.863,0.672
		c4.797,8.263,13.272,12.077,20.161,18.287c8.989,8.102,16.68,20.877,19.986,32.52c0.949,3.345,1.285,6.892,1.121,10.483
		c-0.323,2.382-0.792,4.788-1.396,7.211c-1.072,4.308-2.646,8.657-4.78,12.687c-7.423,12.348-20.721,20.73-35.751,15.686
		c-14.017-4.694-20.758-22.628-17.235-36.179c0.864-3.307,2.417-6.381,4.459-9.058c-3.207,6.775-2.94,17.406,1.632,23.129
		c4.753,5.953,13.231,6.895,20.343,5.164c2.487,1.11,5.589,0.751,9.239-2.052c17.039-13.088,4.219-40.344-16.347-36.968
		c-22.921,3.76-26.612,33.564-13.558,49.155c11.312,13.516,28.729,10.212,40.696,0.267c-2.625,2.731-5.692,5.018-9.235,6.632
		c-10.738,4.894-23.983,3.242-31.502-6.275c-1.322-1.676-3.657,0.688-2.348,2.348c7.031,8.896,18.743,11.59,29.521,8.924
		c12.032-2.981,20.593-12.759,25.213-23.876c5.154-12.41,7.529-28.743,1.933-41.347c-4.646-10.49-12.804-20.021-21.323-28.486
		c7.992,0.319,15.826-2.189,22.612-6.895c2.193-1.519,4.242-3.215,6.141-5.052c6.065-4.867,10.915-11.439,13.674-19.065
		c2.207-6.11,3.003-12.197,2.866-18.286c0.205-4.383-0.084-8.784-0.954-13.088c-0.376-1.868-1.116-3.763-1.939-5.665
		c-0.068-0.274-0.136-0.548-0.212-0.823c-2.807-10.562-0.733-17.985,8.738-23.424c5.183-2.975,10.699-5.203,15.292-9.126
		c5.867-5.014,10.815-12.337,14.403-20.121c-4.308,17.272-15.006,32.643-30.038,42.479c-0.223,0.144-0.301,0.37-0.257,0.624
		c3.089,16.731,6.351,35.22,0.754,51.8c-6.232,18.472-22.602,27.759-39.01,36.077c-0.404,0.206-0.318,0.733,0,0.953
		c27.793,19.727,28.592,61.351,0.411,81.198c-4.921,3.461-11.228,4.787-15.867,8.522c-5.271,4.239-8.636,10.277-14.236,14.387
		c-6.885,5.052-15.161,8.252-23.811,7.591c-4.343-0.332-8.726-1.645-12.487-3.846c-2.606-1.521-4.721-3.382-6.457-5.794
		c-1.371-1.351-2.155-3.006-2.355-4.966c-2.607-4.925-0.103-8.311,7.523-10.162c0.691,0.161,0.986-0.908,0.291-1.068
		c-5.299-1.23-9.833,2.508-9.908,8.039c-0.116,7.886,7.773,14.295,14.418,16.882c8.111,3.16,17.118,2.587,25.042-0.843
		c4.139-1.793,7.923-4.312,11.347-7.234c4.78-4.085,8.104-10.302,13.506-13.555c4.394-2.639,9.287-3.999,13.554-6.997
		c3.982-2.797,7.55-6.148,10.593-9.946c5.604-6.994,9.445-15.47,10.738-24.355c1.347-9.284-0.176-18.87-3.986-27.42
		c-1.604-3.595-3.613-7.005-5.977-10.151c-1.426-1.902-9.966-8.893-9.73-10.644c0.312-2.29,12.02-7.167,14.342-8.65
		c4.192-2.68,8.198-5.658,11.729-9.177c7.27-7.266,11.652-16.505,13.376-26.594c1.669-9.801,1.015-19.87-0.299-29.668
		c-0.788-5.88-3.608-12.146,0.981-16.536c3.228-3.084,6.911-5.596,9.962-8.934c9.482-10.371,15.847-23.609,18.125-37.492
		c1.398-3.79,2.475-7.587,3.14-11.189C592.27,86.073,587.73,75.799,577.992,69.839 M511.354,81.196
		c7.134-5.798,14.653-11.227,23.409-14.15c5.785-1.933,11.782-2.479,17.753-2.053C538.248,66.659,523.472,73.907,511.354,81.196
		 M494.652,121.275c0.765-1.848,1.858-3.311,3.146-4.452c-1.679,1.981-2.939,4.403-3.591,7.282
		C494.166,123.119,494.286,122.16,494.652,121.275 M497.48,133.521c-0.593-0.744-1.196-1.546-1.813-3.071
		c-0.85-1.227-0.349-1.864-0.86-3.352c0.229-5.164,3.191-9.743,7.398-12.687c4.044-1.145,8.724-0.137,12.304,2.807
		c-1.445-0.672-3.02-1.131-4.674-1.316c-5.213-0.569-16.101,3.944-12.557,11.004c1.733,3.448,6.929,3.071,7.984-0.438
		c-1.95,0.733-4.421-1.114-3.035-3.355c3.769-6.107,9.838,0.764,10.04,5.559c0.131,3.115-1.795,6.101-4.674,7.255
		c-0.138,0.055-0.274,0.1-0.404,0.144c-0.124,0.059-0.239,0.109-0.371,0.151C503.563,137.273,499.633,136.207,497.48,133.521
		 M514.797,140.604c-4.462,2.663-9.719,1.813-13.716-0.959c1.282,0.555,2.677,0.946,4.182,1.12c9.181,1.097,12.084-9.743,8.9-16.61
		c-2.424-5.227-9.435-7.893-12.779-2.454c-0.408-0.569-2.543,3.376-3.029,1.179c0.123-1.101,0.239-3.911,9.705-5.963
		c3.307-0.723,6.895,1.224,9.417,3.496c0.052,0.048,0.097,0.106,0.148,0.154c2.98,4.28,3.58,9.493,2.312,14.219
		C518.848,137.149,517.107,139.229,514.797,140.604 M519.595,143.339c8.238-10.449,3.294-28.369-8.801-32.214
		c0.404-0.048,0.803-0.1,1.213-0.116c8.119-0.35,17.149,4.414,19.675,12.529c2.376,7.649-1.819,16.344-6.926,21.947
		c-7.196,7.885-18.719,9.76-27.663,4.732C504.817,152.619,513.776,150.707,519.595,143.339 M493.604,303.204
		c-1.063,0.4-2.148,0.695-3.242,0.929c-0.542-0.528-1.028-1.121-1.46-1.769c0.801-0.151,1.61-0.391,2.422-0.764
		c6.804-3.082,11.979-12.153,7.126-19.007c-1.083-1.521-2.577-2.577-4.202-3.18c-0.692-0.74-1.624-1.248-2.701-1.562
		c3.675,0.291,6.965,2.79,8.846,6.583C504.203,292.121,501.87,300.137,493.604,303.204 M485.941,299.07
		c-1.254-0.208-2.522-0.785-3.764-1.881c-5.216-4.613-2.159-13.965,2.726-17.382c0.863-0.6,1.733-1.042,2.607-1.364
		c1.097-0.095,2.073,0.042,2.94,0.408c-3.468,0.216-6.621,2.44-6.964,6.769c-0.165,2.087,0.486,3.729,1.573,4.876l-0.007,0.086
		c0.25,0.158,0.469,0.363,0.641,0.62c0.059,0.038,0.099,0.082,0.15,0.123c0-0.041-0.007-0.089-0.007-0.133
		c2.708,2.001,7.067,1.648,9.48-1.676c0.452,0.38,0.918,0.792,1.404,1.234c-0.191,1.645-0.977,3.146-2.364,4.482
		c-1.776,2.036-4.317,3.814-7.06,3.931c-0.015-0.037-0.027-0.068-0.042-0.106c-0.082,0.013-0.167,0.021-0.254,0.021
		c-0.212,0.007-0.431-0.007-0.649-0.038c-0.019,0-0.035-0.003-0.056-0.003l0,0c-0.13-0.017-0.254-0.038-0.381-0.068
		C485.925,299.005,485.931,299.037,485.941,299.07 M475.403,276.829c5.014-4.682,12.341-3.722,18.358-2.21
		c2.077,0.518,2.961-2.68,0.885-3.202c-4.531-1.137-9.712-1.723-14.318-0.692c5.716-2.385,12.254-2.426,18.282,1.151
		c8.14,4.833,10.95,14.075,8.017,22.978c-1.187,3.592-4.106,8.924-7.903,10.542c-1.33,0.564-2.528,0.781-3.622,0.767
		c8.291-3.221,12.307-10.513,9.75-19.325c-2.173-7.478-8.105-13.869-16.512-12.179c-3.234,0.651-6.004,2.446-8.066,4.862
		c-6.135,3.941-6.919,12.146-2.482,17.78c0.666,0.839,1.398,1.549,2.188,2.145c1.964,1.957,4.544,3.164,7.354,3.098
		c0.367,0.682,0.777,1.309,1.22,1.888c-8.444,1.062-16.642-2.937-17.211-12.933C471.062,286.62,471.63,280.353,475.403,276.829
		 M476.331,291.329c-0.479-2.766-0.029-5.716,1.52-8.043C476.685,285.781,476.133,288.563,476.331,291.329 M517.71,257.154
		c5.133,7.475,7.334,15.425,7.403,23.722c-2.592-14.908-12.263-29.397-23.438-38.321c-4.533-3.623-9.77-6.498-13.743-10.789
		c-5.719-6.192-2.329-2.348-0.743-1.59c2.872,1.371,5.312,2.926,8.393,3.866c1.004,0.305,2.006,0.548,3.006,0.757
		C505.585,241.691,512.172,249.101,517.71,257.154 M502.867,234.21c-0.929-0.908-1.86-1.799-2.789-2.683
		c7.196,1.727,14.482,1.096,21.154-1.351C515.482,233.124,509.217,234.656,502.867,234.21 M565.531,133.661
		c-3.29,2.279-7.136,3.979-10.803,5.908c1.549-1.052,3.078-2.118,4.473-3.269c9.055-7.488,16.21-17.31,20.635-28.188
		c2.961-7.282,6.908-18.656,4.465-27.234c0.216,0.36,0.425,0.723,0.621,1.093c0.459,1.34,0.822,2.779,1.097,4.363
		c0.603,3.533,0.855,7.125,0.85,10.713C584.49,109.983,576.433,126.097,565.531,133.661"/>
</g>
<path fill="#FFFFFF" d="M89.312,271.229l0.06-13.081c6.102,7.704,15.083,12.282,25.664,13.081h6.982
	c9.62-0.782,17.938-4.65,24.204-11.347c6.479-6.913,10.051-16.11,10.051-25.898c0-21.333-16.304-37.419-37.921-37.419
	c-12.738,0-23.073,5.829-28.979,13.012l-0.063-36.433h-8.225v98.086H89.312z M89.308,229.68
	c1.959-14.616,13.77-25.186,29.043-25.186c17.234,0,29.738,12.399,29.738,29.49c-0.158,19.353-15.272,29.486-30.117,29.486
	c-15.065,0-26.719-10.551-28.664-25.154V229.68z"/>
<path fill="#FFFFFF" d="M228.248,205.869c-6.899-6.165-15.977-9.524-25.551-9.466c-21.414,0.131-37.493,16.31-37.43,37.65h-0.004
	v0.127h0.004c0.195,21.258,16.422,37.183,37.749,37.05h0.408c15.423-0.096,28.179-8.509,34.173-22.567l1.386-3.256l-8.931,0.055
	l-0.619,1.343c-4.708,10.257-14.549,16.426-26.343,16.501c-11.563,0.168-27.814-7.985-29.397-26.607l66.392-0.415l0.253-4.188
	l-0.009-0.127C239.826,221.644,235.537,212.374,228.248,205.869 M173.91,228.771c1.955-14.006,13.936-24.349,28.835-24.441
	l0.096-0.004c13.693-0.634,26.849,10.587,28.929,24.079L173.91,228.771z"/>
<rect x="249.329" y="173.144" fill="#FFFFFF" width="8.233" height="98.086"/>
<rect x="266.553" y="173.144" fill="#FFFFFF" width="8.234" height="98.086"/>
<path fill="#FFFFFF" d="M350.679,209.416c-5.911-7.187-16.241-13.013-28.984-13.013c-21.616,0-37.917,16.083-37.917,37.414
	c0,9.791,3.57,18.989,10.046,25.905c7.058,7.529,16.695,11.508,27.871,11.508c12.027,0,22.247-4.747,28.984-13.246l-0.208,13.03
	l8.388,0.052v-73.023h-8.18V209.416z M351.058,233.816c0,16.813-12.46,29.49-28.982,29.49c-14.844,0-29.959-10.137-30.117-29.49
	c0-17.087,12.507-29.486,29.737-29.486C338.434,204.33,351.058,217.006,351.058,233.816"/>
<path fill="#FFFFFF" d="M434.601,211.376c-5.953-7.149-16.323-12.91-29.062-12.831c-21.616,0.133-37.819,16.319-37.686,37.649
	c0.06,9.791,3.684,18.965,10.208,25.836c7.104,7.492,16.769,11.406,27.948,11.34c12.021-0.078,22.211-4.883,28.897-13.427
	l0.013,2.467c0.117,18.617-14.355,29.83-28.417,29.918c-6.458,0.041-13.122-2.265-18.322-6.35c-4.109-3.099-6.251-6.539-7.812-9.047
	l-1.085-1.724l-8.881,0.055l1.444,3.246c5.836,13.101,19.986,21.837,35.21,21.744c5.453-0.034,14.531-2.176,22.17-8.098
	c6.344-4.912,13.896-14.178,13.87-30.426l-0.385-61.776l-8.184,0.052L434.601,211.376z M435.132,235.777
	c0.106,16.809-12.275,29.565-28.801,29.668c-14.843,0.089-30.018-9.949-30.297-29.305c-0.11-17.08,12.32-29.562,29.557-29.671
	C422.328,206.369,435.028,218.963,435.132,235.777"/>
<path fill="#FFFFFF" d="M483.912,206.023l-0.055-8.137l-2.472,0.172c-4.944,0.356-14.253,1.021-21.075,8.841l-0.045-7.07
	l-8.176,0.052l0.445,71.546l8.18-0.051l-0.243-38.551c-0.059-9.739,1.192-16.224,7.958-22.475c5.564-3.958,9.636-4.112,13.23-4.246
	L483.912,206.023z"/>
<path fill="#FFFFFF" d="M547.228,207.308c-6.898-6.162-15.977-9.524-25.55-9.466c-21.415,0.131-37.494,16.313-37.43,37.65h-0.007
	v0.127h0.007c0.192,21.262,16.423,37.183,37.745,37.053c0.138,0,0.274,0,0.412-0.003c15.421-0.096,28.177-8.51,34.171-22.567
	l1.388-3.256l-8.931,0.059l-0.621,1.343c-4.707,10.258-14.547,16.426-26.343,16.499c-11.563,0.168-27.814-7.985-29.397-26.604
	l66.392-0.415l0.254-4.191l-0.01-0.124C558.808,223.083,554.517,213.816,547.228,207.308 M492.892,230.211
	c1.953-14.002,13.935-24.345,28.835-24.441h0.096c13.691-0.638,26.848,10.583,28.928,24.078L492.892,230.211z"/>
<path fill="#FFFFFF" d="M631.297,206.801c-6.902-6.162-15.979-9.523-25.557-9.466c-21.415,0.131-37.488,16.313-37.427,37.65h-0.003
	v0.127h0.003c0.195,21.262,16.423,37.183,37.745,37.05h0.408c15.426-0.096,28.182-8.509,34.171-22.567l1.389-3.256l-8.927,0.055
	l-0.618,1.347c-4.708,10.257-14.551,16.423-26.347,16.498c-11.556,0.168-27.814-7.981-29.397-26.607l66.39-0.412l0.253-4.191
	l-0.007-0.127C642.873,222.576,638.582,213.309,631.297,206.801 M576.957,229.704c1.953-14.006,13.935-24.349,28.831-24.442
	l0.097-0.003c13.69-0.634,26.851,10.586,28.927,24.082L576.957,229.704z"/>
<path fill="#FFFFFF" d="M707.857,203.939l-0.015-0.01c-5.782-4.76-13.349-7.146-22.427-7.087h-0.003
	c-11.094-0.195-19.688,4.277-24.81,9.805l-0.052-8.012l-8.18,0.051l0.449,71.547l8.178-0.052l-0.254-40.823
	c-0.093-15.292,8.907-24.253,24.664-24.589c5.038-0.034,12.153,0.915,17.416,5.606c4.96,4.407,7.512,11.751,7.573,21.83
	l0.233,37.667l8.185-0.055l-0.24-37.663C718.497,219.31,714.889,209.816,707.857,203.939"/>
</svg>
