<svg id="FUTAZI-Logo_Grey" xmlns="http://www.w3.org/2000/svg" width="317" height="106.605" viewBox="0 0 317 106.605">
  <path id="Path_3" data-name="Path 3" d="M624.56,146s-7.689,43.857,32.348,65.736c0,0-40.106-11.887-39.938-62.113L624.56,146Z" transform="translate(-398.029 -105.131)" fill="#686868" fill-rule="evenodd"/>
  <path id="Path_4" data-name="Path 4" d="M502.5,261.4s-34.02-28.733-73.065-5.14c0,0,30.442-28.691,73.778-3.238l-.7,8.382h0Z" transform="translate(-287.364 -162.071)" fill="#686868" fill-rule="evenodd"/>
  <path id="Path_5" data-name="Path 5" d="M496.3,105.505s42.394-13.587,43.132-59.215c0,0,8.148,41.033-36.4,64.253l-6.73-5.037Z" transform="translate(-326.819 -46.29)" fill="#686868" fill-rule="evenodd"/>
  <path id="Path_6" data-name="Path 6" d="M597.055,154.9l-9.5,22.392s6.517,29.946,45.763,39.389c1.9.459-38.758-13.046-36.254-61.781h0Z" transform="translate(-380.668 -110.383)" fill="#f37d20" fill-rule="evenodd"/>
  <path id="Path_7" data-name="Path 7" d="M509.331,232.591,494.784,213.1s-29.146-9.448-57.063,19.715c-1.353,1.414,30.786-26.925,71.618-.225h0Z" transform="translate(-292.226 -143.865)" fill="#f37d20" fill-rule="evenodd"/>
  <path id="Path_8" data-name="Path 8" d="M515.68,120.86l24.236-2s23.474-19.7,13.579-58.842c-.479-1.894,6.476,40.389-37.815,60.838Z" transform="translate(-338.256 -54.357)" fill="#f37d20" fill-rule="evenodd"/>
  <path id="Path_9" data-name="Path 9" d="M146.89,122.263H121.478q-4.476,0-6.234,2.508a2.341,2.341,0,0,0-.41.7l-2.607,5.578h30.561L137.7,141.925h-30.56l-9.251,19.8H82.81L101.5,121.705q3.582-7.669,12.378-9.62a44.833,44.833,0,0,1,8.243-.557h29.782l-5.017,10.735Zm45.14,26.913a19.893,19.893,0,0,1-4.816,6.968q-6.595,5.578-16.715,5.578H151.133q-10.8,0-11.7-6-.258-1.951,1.894-6.558l17.588-37.647H174l-17.461,37.373q-.525,1.955,4.246,1.951h10.227q4.574,0,5.906-1.812l.291-.41,17.326-37.09h15.084L192.034,149.18h0Zm69.769-30.4a8.123,8.123,0,0,1-2.992,3.484l-41.283,28.589H244.79L239.7,161.722H206.606q-13.432,0-9.981-7.378a12.771,12.771,0,0,1,4.324-4.464l39.566-27.609H212.774l5.017-10.735h36.983a10.678,10.678,0,0,1,5.677,1.394q3.177,1.955,1.353,5.857h0Zm103.494,3.488H350.211l-18.445,39.459H316.683l18.444-39.459H320.121l5-10.739h45.169l-5,10.739Zm11.067,39.459H361.277l23.449-50.2H399.81l-23.474,50.2h0Z" transform="translate(-82.81 -84.784)" fill="#fff"/>
  <g id="Registered_Group" data-name="Registered Group" transform="translate(245.943 80.422)">
    <path id="Path_10" data-name="Path 10" d="M686.232,249.263a3.381,3.381,0,1,1,3.382-3.382A3.382,3.382,0,0,1,686.232,249.263Zm0-6.365a2.984,2.984,0,1,0,2.984,2.984,2.984,2.984,0,0,0-2.984-2.984Z" transform="translate(-682.85 -242.5)" fill="#686868"/>
    <path id="Path_11" data-name="Path 11" d="M687.74,246.568h1.6a1.115,1.115,0,0,1,.758.242.82.82,0,0,1,.279.652,1.036,1.036,0,0,1-.139.545.726.726,0,0,1-.451.32h0a.607.607,0,0,1,.242.094.565.565,0,0,1,.152.16.641.641,0,0,1,.082.209,2.085,2.085,0,0,1,.037.238v.254a.884.884,0,0,0,.024.254,1.423,1.423,0,0,0,.053.233.594.594,0,0,0,.106.2h-.5a.283.283,0,0,1-.061-.127,1.388,1.388,0,0,1-.02-.172v-.23a1.236,1.236,0,0,0-.029-.307c-.029-.119-.029-.16-.049-.238a.562.562,0,0,0-.09-.2.451.451,0,0,0-.164-.135.6.6,0,0,0-.266-.049H688.2v1.455h-.455V246.56Zm1.4,1.57a1.8,1.8,0,0,0,.3-.025.644.644,0,0,0,.25-.094.508.508,0,0,0,.173-.184.625.625,0,0,0,.066-.3.616.616,0,0,0-.143-.41.583.583,0,0,0-.464-.164h-1.127v1.189h.943Z" transform="translate(-685.736 -244.896)" fill="#686868"/>
  </g>
</svg>
